<svg width="266" height="60" viewBox="0 0 266 60" fill="none" xmlns="http://www.w3.org/2000/svg">
<path d="M7.68417 11.3296C7.68417 11.9467 7.98979 12.4317 8.60103 12.7843C9.24137 13.137 10.231 13.5191 11.5699 13.9305C13.1708 14.4595 14.4806 14.9738 15.4993 15.4734C16.5472 15.9731 17.4495 16.7519 18.2062 17.8099C18.9921 18.8679 19.3851 20.2492 19.3851 21.9538C19.3851 27.4202 15.8631 30.1534 8.81933 30.1534C7.65506 30.1534 6.22883 30.0505 4.54064 29.8448C2.88156 29.6391 1.36801 29.3746 0 29.0513C0.0582134 28.4341 0.17464 27.5377 0.34928 26.3622C0.553027 25.1572 0.742221 24.2608 0.916861 23.673C1.93559 23.82 3.4637 23.9963 5.50116 24.2021C7.56774 24.4078 9.12495 24.5106 10.1728 24.5106C10.784 24.5106 11.1479 24.4666 11.2643 24.3784C11.4389 24.2608 11.5699 24.0698 11.6572 23.8053C11.7737 23.5114 11.8319 23.2616 11.8319 23.0559C11.8319 22.4681 11.5554 22.0272 11.0023 21.7334C10.4493 21.4101 9.50333 21.028 8.16443 20.5872C6.56356 20.0876 5.2392 19.5732 4.19136 19.0442C3.14352 18.5152 2.22666 17.6923 1.44078 16.5755C0.654901 15.4587 0.26196 13.9893 0.26196 12.1672C0.26196 10.874 0.553027 9.61029 1.13516 8.37594C1.71729 7.1122 2.31398 6.25991 2.92522 5.81907C3.39093 5.49579 4.35145 5.1872 5.80678 4.89331C7.26212 4.59942 8.63013 4.45247 9.91083 4.45247C13.1708 4.45247 15.834 4.76106 17.9006 5.37824C17.8715 5.96602 17.7696 6.77422 17.595 7.80285C17.4495 8.83147 17.2894 9.77193 17.1147 10.6242L16.1106 10.5801C12.3267 10.3156 9.91083 10.1834 8.86299 10.1834C8.42639 10.1834 8.17898 10.1981 8.12077 10.2275C8.00434 10.2862 7.90247 10.4185 7.81515 10.6242C7.72783 10.8299 7.68417 11.0651 7.68417 11.3296Z" fill="white"/>
<path d="M29.6615 21.3366C29.6615 21.8656 29.6761 22.424 29.7052 23.0118C29.7343 23.5702 29.8216 23.9229 29.9672 24.0698C30.1709 24.2755 30.884 24.3784 32.1065 24.3784L33.5909 24.3343C33.8529 25.745 33.9839 27.3761 33.9839 29.2276C33.4309 29.4333 32.6159 29.6244 31.5389 29.8007C30.4911 29.977 29.4869 30.0652 28.5264 30.0652C26.518 30.0652 24.9608 29.6244 23.8548 28.7427C22.7778 27.8316 22.2393 26.4356 22.2393 24.5547V13.7101H18.9648V9.69846L22.2393 9.38987L24.204 4.54064L29.6615 4.23205V9.38987H34.2895V13.7101H29.6615V21.3366Z" fill="white"/>
<path d="M55.7327 9.38987V29.6685H49.664L48.8344 26.274C46.7388 28.8309 44.2356 30.1093 41.3249 30.1093C40.2771 30.1093 39.2874 29.9623 38.356 29.6685C37.4537 29.3746 36.7697 28.9484 36.304 28.39C36.042 28.0667 35.8383 27.2585 35.6928 25.9654C35.5763 24.6723 35.5181 22.7032 35.5181 20.0582V9.38987H42.984V19.97C42.984 20.5578 42.9985 21.2484 43.0276 22.0419C43.0568 22.8355 43.1441 23.3351 43.2896 23.5408C43.4934 23.8347 44.0755 23.9816 45.036 23.9816L45.7346 23.9376C46.5496 23.9082 47.3937 23.7171 48.2669 23.3645V9.38987H55.7327Z" fill="white"/>
<path d="M78.4356 2.90954V29.6685H72.2795L71.6683 26.274C71.0862 27.4202 70.2275 28.3312 69.0923 29.0072C67.9572 29.6831 66.6765 30.0211 65.2503 30.0211C62.9799 30.0211 61.1608 29.1982 59.7928 27.5524C58.4538 25.9066 57.7844 23.4379 57.7844 20.1463C57.7844 17.6482 58.0755 15.591 58.6576 13.9746C59.2397 12.3582 59.9237 11.1973 60.7096 10.492C61.2044 10.0511 62.2086 9.68376 63.7222 9.38987C65.2648 9.09598 66.6328 8.94903 67.8262 8.94903C68.874 8.94903 69.951 9.05189 71.057 9.25762C70.9697 7.84693 70.9261 7.06812 70.9261 6.92117V3.21812L78.4356 2.90954ZM68.5248 24.1139C69.3106 24.1139 70.1256 23.9816 70.9697 23.7171V14.1509C70.1256 14.0334 69.1942 13.9746 68.1755 13.9746C67.3023 13.9746 66.7493 14.0481 66.5164 14.195C66.1962 14.4301 65.9343 15.1061 65.7305 16.2229C65.5559 17.3103 65.4686 18.4565 65.4686 19.6614C65.4686 21.4542 65.7305 22.6444 66.2544 23.2322C66.8075 23.82 67.5642 24.1139 68.5248 24.1139Z" fill="white"/>
<path d="M85.03 6.87709C84.0403 6.87709 83.1817 6.53911 82.454 5.86316C81.7555 5.1872 81.4062 4.379 81.4062 3.43854C81.4062 2.49809 81.7555 1.68988 82.454 1.01393C83.1817 0.337976 84.0403 0 85.03 0C86.0196 0 86.8637 0.337976 87.5622 1.01393C88.2608 1.68988 88.6101 2.49809 88.6101 3.43854C88.6101 4.379 88.2608 5.1872 87.5622 5.86316C86.8637 6.53911 86.0196 6.87709 85.03 6.87709ZM81.2752 9.38987H88.7411V29.6685H81.2752V9.38987Z" fill="white"/>
<path d="M101.262 30.2415C97.7695 30.2415 95.1499 29.4186 93.4035 27.7728C91.6862 26.0977 90.8275 23.4673 90.8275 19.8818C90.8275 17.9128 91.0022 16.1935 91.3515 14.724C91.7299 13.2252 92.181 12.1818 92.7049 11.5941C93.3744 10.8299 94.5969 10.1981 96.3724 9.69846C98.177 9.19884 99.8652 8.94903 101.437 8.94903C105.192 8.94903 107.87 9.75723 109.47 11.3736C111.071 12.9901 111.872 15.5763 111.872 19.1324C111.872 22.953 111.013 25.7597 109.296 27.5524C107.578 29.3452 104.901 30.2415 101.262 30.2415ZM101.393 25.0837C102.528 25.0837 103.271 24.687 103.62 23.8935C103.969 23.0706 104.144 21.6305 104.144 19.5732C104.144 18.1332 104.071 17.0311 103.926 16.267C103.78 15.4734 103.504 14.9004 103.096 14.5477C102.718 14.1656 102.121 13.9746 101.306 13.9746C100.142 13.9746 99.4722 14.0775 99.2976 14.2832C99.0647 14.4889 98.8755 15.1355 98.73 16.2229C98.5845 17.3103 98.5117 18.4418 98.5117 19.6173C98.5117 21.6158 98.7009 23.0265 99.0793 23.8494C99.4868 24.6723 100.258 25.0837 101.393 25.0837Z" fill="white"/>
<path d="M113.338 34.1668C115.695 34.1668 117.689 34.3873 119.319 34.8281C120.949 35.2689 122.244 36.1212 123.205 37.385C124.194 38.6193 124.689 40.3974 124.689 42.7191C124.689 43.7477 124.529 44.8058 124.209 45.8932C123.918 46.9512 123.539 47.8769 123.074 48.6704C122.637 49.4639 122.244 49.9783 121.895 50.2134C121.487 50.5073 120.585 50.7424 119.188 50.9187C117.791 51.0657 116.146 51.1391 114.254 51.1391C113.585 51.1391 112.552 51.1097 111.155 51.051V59.4269H103.296V34.2991C106.352 34.2109 109.699 34.1668 113.338 34.1668ZM116.612 45.4964C116.903 45.1143 117.049 44.3502 117.049 43.204C117.049 41.7052 116.729 40.6472 116.088 40.03C115.477 39.4128 114.4 39.1042 112.857 39.1042C112.333 39.1042 111.766 39.1483 111.155 39.2365V45.9372C111.446 45.9666 112.013 45.9813 112.857 45.9813C115.099 45.9813 116.35 45.8197 116.612 45.4964Z" fill="white"/>
<path d="M146.288 39.1483V59.4269H140.22L139.39 56.0324C137.294 58.5893 134.791 59.8677 131.88 59.8677C130.833 59.8677 129.843 59.7208 128.912 59.4269C128.009 59.133 127.325 58.7069 126.86 58.1485C126.598 57.8252 126.394 57.017 126.248 55.7239C126.132 54.4307 126.074 52.4617 126.074 49.8166V39.1483H133.54V49.7285C133.54 50.3162 133.554 51.0069 133.583 51.8004C133.612 52.5939 133.7 53.0935 133.845 53.2992C134.049 53.5931 134.631 53.7401 135.592 53.7401L136.29 53.696C137.105 53.6666 137.949 53.4756 138.822 53.1229V39.1483H146.288Z" fill="white"/>
<path d="M149.126 32.9766L156.592 32.668V59.4269H149.126V32.9766Z" fill="white"/>
<path d="M175.662 52.5498C175.662 55.1655 174.832 57.0464 173.173 58.1926C171.543 59.3387 169.215 59.9118 166.188 59.9118C164.063 59.9118 161.618 59.6032 158.853 58.9861C158.911 58.3983 159.042 57.5607 159.246 56.4733C159.479 55.3565 159.668 54.5042 159.813 53.9164C160.861 54.0928 162.025 54.2397 163.306 54.3573C164.587 54.4454 165.678 54.4895 166.581 54.4895C167.367 54.4895 167.847 54.4454 168.021 54.3573C168.051 54.3279 168.08 54.2544 168.109 54.1368C168.167 53.9899 168.196 53.8429 168.196 53.696C168.196 53.1082 167.832 52.7115 167.105 52.5057C166.872 52.447 165.984 52.1972 164.441 51.7563C162.899 51.3155 161.633 50.522 160.643 49.3758C159.682 48.2002 159.202 46.7454 159.202 45.0115C159.202 44.1004 159.406 43.0865 159.813 41.9697C160.221 40.8529 160.657 40.1476 161.123 39.8537C161.472 39.6185 162.317 39.3834 163.655 39.1483C164.994 38.8838 166.231 38.7516 167.367 38.7516C169.782 38.7516 172.213 38.9279 174.658 39.2806C174.658 39.8096 174.585 40.706 174.439 41.9697C174.294 43.204 174.163 43.9829 174.047 44.3061C171.572 43.9829 169.579 43.8212 168.065 43.8212C167.279 43.8212 166.77 43.8653 166.537 43.9535C166.479 43.9829 166.421 44.071 166.362 44.218C166.304 44.3355 166.275 44.4972 166.275 44.7029C166.275 45.1143 166.406 45.4082 166.668 45.5846C166.93 45.7903 167.614 46.0401 168.72 46.334C170.03 46.7161 171.15 47.1128 172.082 47.5243C173.042 47.9357 173.872 48.5529 174.57 49.3758C175.298 50.1987 175.662 51.2567 175.662 52.5498Z" fill="white"/>
<path d="M189.228 59.4269L188.529 56.6496C187.19 58.8538 185.327 59.9559 182.941 59.9559C180.99 59.9559 179.39 59.4122 178.138 58.3248C176.915 57.208 176.304 55.6504 176.304 53.6519C176.304 52.4176 176.653 51.3449 177.352 50.4338C178.08 49.4933 179.069 48.8321 180.321 48.45C181.951 47.9798 184.469 47.7153 187.874 47.6565C187.874 45.7168 187.787 44.6882 187.612 44.5706C187.467 44.4531 187.001 44.3943 186.215 44.3943C185.72 44.3943 185.036 44.4237 184.163 44.4825C182.766 44.5412 180.874 44.7029 178.487 44.9674C178.254 43.3804 178.08 41.6758 177.963 39.8537C179.506 39.5304 181.121 39.2659 182.81 39.0602C184.498 38.825 186.011 38.7075 187.35 38.7075C189.679 38.7075 191.425 39.1042 192.589 39.8977C193.754 40.6619 194.51 41.6758 194.86 42.9395C195.209 44.2033 195.369 45.805 195.34 47.7447L195.296 54.225L195.427 59.4269H189.228ZM185.473 55.0185C186.23 55.0185 187.03 54.8716 187.874 54.5777V51.3155H187.525C185.371 51.3155 184.178 51.433 183.945 51.6681C183.799 51.8151 183.683 52.0355 183.595 52.3294C183.537 52.6233 183.508 52.9025 183.508 53.167C183.508 53.8723 183.668 54.3573 183.988 54.6218C184.309 54.8863 184.803 55.0185 185.473 55.0185Z" fill="white"/>
<path d="M207.094 51.0951C207.094 51.6241 207.108 52.1825 207.137 52.7702C207.167 53.3286 207.254 53.6813 207.399 53.8283C207.603 54.034 208.316 54.1368 209.539 54.1368L211.023 54.0928C211.285 55.5034 211.416 57.1345 211.416 58.9861C210.863 59.1918 210.048 59.3828 208.971 59.5592C207.923 59.7355 206.919 59.8237 205.959 59.8237C203.95 59.8237 202.393 59.3828 201.287 58.5011C200.21 57.5901 199.672 56.1941 199.672 54.3132V43.4685H196.397V39.4569L199.672 39.1483L201.636 34.2991L207.094 33.9905V39.1483H211.722V43.4685H207.094V51.0951Z" fill="white"/>
<path d="M216.967 36.6355C215.977 36.6355 215.119 36.2976 214.391 35.6216C213.693 34.9457 213.343 34.1375 213.343 33.197C213.343 32.2565 213.693 31.4483 214.391 30.7724C215.119 30.0964 215.977 29.7585 216.967 29.7585C217.957 29.7585 218.801 30.0964 219.499 30.7724C220.198 31.4483 220.547 32.2565 220.547 33.197C220.547 34.1375 220.198 34.9457 219.499 35.6216C218.801 36.2976 217.957 36.6355 216.967 36.6355ZM213.212 39.1483H220.678V59.4269H213.212V39.1483Z" fill="white"/>
<path d="M233.199 60C229.707 60 227.087 59.1771 225.341 57.5313C223.623 55.8561 222.765 53.2258 222.765 49.6403C222.765 47.6712 222.939 45.9519 223.289 44.4825C223.667 42.9836 224.118 41.9403 224.642 41.3525C225.311 40.5884 226.534 39.9565 228.309 39.4569C230.114 38.9573 231.802 38.7075 233.374 38.7075C237.129 38.7075 239.807 39.5157 241.407 41.1321C243.008 42.7485 243.809 45.3348 243.809 48.8909C243.809 52.7115 242.95 55.5181 241.233 57.3109C239.516 59.1036 236.838 60 233.199 60ZM233.33 54.8422C234.466 54.8422 235.208 54.4454 235.557 53.6519C235.906 52.829 236.081 51.3889 236.081 49.3317C236.081 47.8916 236.008 46.7895 235.863 46.0254C235.717 45.2319 235.441 44.6588 235.033 44.3061C234.655 43.9241 234.058 43.733 233.243 43.733C232.079 43.733 231.409 43.8359 231.235 44.0416C231.002 44.2474 230.813 44.8939 230.667 45.9813C230.522 47.0687 230.449 48.2002 230.449 49.3758C230.449 51.3742 230.638 52.7849 231.016 53.6078C231.424 54.4307 232.195 54.8422 233.33 54.8422Z" fill="white"/>
<path d="M265.214 40.4268C265.476 40.75 265.665 41.5582 265.782 42.8514C265.927 44.1445 266 46.1136 266 48.7586V59.4269H258.534V47.0393C258.534 46.0989 258.461 45.5111 258.316 45.276C258.083 44.9821 257.544 44.8351 256.7 44.8351C256.293 44.8351 255.987 44.8498 255.784 44.8792C254.969 44.9086 254.124 45.0996 253.251 45.4523V59.4269H245.785V39.1483H251.854L252.684 42.5428C254.779 39.9859 257.283 38.7075 260.193 38.7075C261.241 38.7075 262.216 38.8544 263.118 39.1483C264.05 39.4422 264.748 39.8684 265.214 40.4268Z" fill="white"/>
<path d="M61.1034 47.2157C60.987 47.2157 60.856 47.1716 60.7105 47.0834C60.5941 47.0246 60.5359 46.9365 60.5359 46.8189C60.5359 46.6426 60.5941 46.5103 60.7105 46.4222C60.856 46.334 60.987 46.2752 61.1034 46.2458C63.1991 45.4229 64.9601 44.3649 66.3863 43.0718C67.8125 41.7787 69.0496 40.2945 70.0974 38.6193C71.1743 36.9441 72.164 35.1367 73.0663 33.197C72.9499 33.2558 72.6733 33.388 72.2367 33.5938C71.8001 33.7701 71.3199 33.9758 70.796 34.2109C70.3011 34.446 69.8645 34.6518 69.4862 34.8281C69.1078 35.0044 68.8895 35.0926 68.8313 35.0926C68.6275 35.0926 68.4674 34.9897 68.351 34.784C68.2346 34.5783 68.1764 34.3726 68.1764 34.1668C68.1764 33.9023 68.4092 33.6231 68.8749 33.3293C69.3697 33.0354 69.9519 32.7562 70.6213 32.4917C71.3199 32.2271 71.9602 31.992 72.5424 31.7863C73.1536 31.5806 73.5902 31.4336 73.8522 31.3455C75.5986 26.9371 76.4718 22.323 76.4718 17.5031C76.4718 16.2982 76.1807 15.3136 75.5986 14.5495C75.0455 13.7854 74.1287 13.4033 72.848 13.4033C71.5091 13.4033 70.0683 13.7119 68.5256 14.3291C67.0121 14.9463 65.4985 15.7839 63.985 16.8419C62.5006 17.8999 61.1325 19.1048 59.881 20.4568C58.6585 21.8087 57.6688 23.2193 56.9121 24.6888C56.1844 26.1289 55.8206 27.5396 55.8206 28.9209C55.8206 30.0083 56.1262 30.8018 56.7374 31.3014C57.3778 31.801 58.2073 32.0508 59.2261 32.0508C60.5067 32.0508 61.7147 31.8892 62.8498 31.5659C63.985 31.2132 65.0037 30.8312 65.906 30.4197C66.8375 29.9789 67.5942 29.5968 68.1764 29.2735C68.7585 28.9209 69.1369 28.7445 69.3115 28.7445C69.4862 28.7445 69.5735 28.8033 69.5735 28.9209C69.5444 28.9796 69.5007 29.0384 69.4425 29.0972C69.4134 29.1266 69.3697 29.1707 69.3115 29.2294C67.9726 30.3168 66.43 31.2426 64.6836 32.0067C62.9372 32.7709 61.1908 33.1529 59.4444 33.1529C58.5129 33.1529 57.6397 33.0207 56.8248 32.7562C56.0098 32.4917 55.3549 32.0508 54.8601 31.4336C54.3652 30.8165 54.1178 29.9789 54.1178 28.9209C54.1178 27.422 54.5399 25.8938 55.384 24.3361C56.2281 22.7491 57.3487 21.2209 58.7458 19.7514C60.172 18.2819 61.7147 16.9594 63.3738 15.7839C65.0619 14.6083 66.7647 13.6825 68.482 13.0066C70.1993 12.3012 71.771 11.9486 73.1973 11.9486C74.9146 11.9486 76.1225 12.4776 76.8211 13.5356C77.5487 14.5936 77.9126 15.9161 77.9126 17.5031C77.9126 19.7955 77.6797 22.0732 77.214 24.3361C76.7774 26.5697 76.137 28.7445 75.2929 30.8605C79.2515 29.7731 83.2973 29.0237 87.4304 28.6123C87.5469 28.2008 87.7652 27.4808 88.0853 26.4522C88.4055 25.4235 88.7985 24.2774 89.2642 23.0136C89.7299 21.7499 90.2392 20.5302 90.7923 19.3547C91.3453 18.1497 91.8983 17.1652 92.4513 16.401C93.0335 15.6369 93.572 15.2549 94.0668 15.2549C94.2705 15.2549 94.4888 15.2989 94.7217 15.3871C94.9836 15.4753 95.1292 15.6516 95.1583 15.9161L95.0273 16.2688C94.7653 16.7096 94.4597 17.1505 94.1104 17.5913C93.7902 18.0321 93.4846 18.473 93.1936 18.9138C92.2913 20.4127 91.4763 21.9703 90.7486 23.5867C90.0209 25.2031 89.3951 26.8489 88.8712 28.5241H89.7008C89.9627 28.5241 90.2101 28.5388 90.443 28.5682C90.6758 28.5976 90.8068 28.6711 90.8359 28.7886C90.6904 28.9943 90.3411 29.1266 89.7881 29.1854C89.2642 29.2441 88.8712 29.2882 88.6093 29.3176C88.1727 30.7871 87.8234 32.2859 87.5614 33.8142C87.3286 35.3424 87.2121 36.8853 87.2121 38.443C87.2121 39.0602 87.2558 39.692 87.3431 40.3386C87.4304 40.9851 87.6342 41.5435 87.9544 42.0138C88.2745 42.5134 88.7693 42.8808 89.4388 43.1159C89.5843 43.1453 89.759 43.204 89.9627 43.2922C90.1665 43.3804 90.2829 43.5273 90.312 43.733C90.2538 43.8506 90.1665 43.9094 90.05 43.9094C89.9336 43.9388 89.8172 43.9535 89.7008 43.9535C88.7693 43.9535 88.0417 43.6596 87.5178 43.0718C86.9938 42.5134 86.63 41.8227 86.4263 40.9998C86.2516 40.1769 86.1643 39.3981 86.1643 38.6634C86.1643 37.1058 86.2662 35.5628 86.4699 34.0346C86.6737 32.5063 86.9211 30.9781 87.2121 29.4499C85.0582 29.6556 82.9189 30.0377 80.7941 30.596C78.6984 31.1251 76.6319 31.7863 74.5944 32.5798C73.6921 34.5783 72.6442 36.5621 71.4509 38.5311C70.2575 40.5002 68.8458 42.2489 67.2158 43.7771C65.5859 45.3054 63.6503 46.4369 61.4091 47.1716C61.3508 47.201 61.249 47.2157 61.1034 47.2157Z" fill="#8A38F5"/>
<path d="M95.9438 24.4684C95.7401 24.4684 95.5509 24.4243 95.3762 24.3361C95.2016 24.2186 95.1143 24.0569 95.1143 23.8512C95.1143 23.6161 95.2161 23.2634 95.4199 22.7932C95.6236 22.2936 95.8856 21.794 96.2058 21.2943C96.5259 20.7947 96.8607 20.3686 97.2099 20.0159C97.5883 19.6632 97.9231 19.4869 98.2141 19.4869C98.447 19.4869 98.5634 19.6339 98.5634 19.9277C98.5634 20.2804 98.3742 20.5596 97.9958 20.7653C97.763 20.9123 97.5592 21.1915 97.3846 21.6029C97.2391 22.0144 97.1081 22.4405 96.9916 22.8814C96.9043 23.3222 96.817 23.6749 96.7297 23.9394C96.6424 24.292 96.3804 24.4684 95.9438 24.4684ZM95.0706 41.3525C94.4011 41.3525 93.9063 41.0733 93.5862 40.5149C93.266 39.9271 93.0622 39.2659 92.9749 38.5311C92.8876 37.767 92.8439 37.1499 92.8439 36.6796C92.8439 36.3857 92.873 35.842 92.9313 35.0485C93.0186 34.255 93.1205 33.3733 93.2369 32.4035C93.3824 31.4042 93.5425 30.4344 93.7171 29.4939C93.9209 28.5535 94.1537 27.7747 94.4157 27.1575C94.6777 26.5403 94.9542 26.2317 95.2452 26.2317C95.4781 26.2317 95.6818 26.3052 95.8565 26.4522C96.0311 26.5991 96.1184 26.7901 96.1184 27.0253C96.1184 27.3779 96.0166 27.9363 95.8128 28.7004C95.6091 29.4646 95.3617 30.3315 95.0706 31.3014C94.8086 32.2712 94.5612 33.2558 94.3284 34.255C94.1246 35.2249 94.0228 36.1065 94.0228 36.9C94.0228 37.1058 94.0373 37.4584 94.0664 37.9581C94.1246 38.4577 94.2265 38.9279 94.372 39.3687C94.5176 39.7802 94.7504 39.9859 95.0706 39.9859C95.5072 39.9859 95.9875 39.6626 96.5114 39.0161C97.0353 38.3695 97.5592 37.576 98.0831 36.6355C98.6362 35.6657 99.1455 34.7105 99.6113 33.7701C100.077 32.8002 100.47 31.992 100.79 31.3455C101.11 30.6989 101.329 30.3756 101.445 30.3756C101.59 30.3756 101.678 30.4344 101.707 30.552C101.765 30.6401 101.794 30.743 101.794 30.8605C101.794 31.2426 101.634 31.8598 101.314 32.7121C100.994 33.535 100.572 34.446 100.048 35.4453C99.5239 36.4151 98.9563 37.3556 98.3451 38.2666C97.7339 39.1483 97.1372 39.8831 96.555 40.4708C95.9729 41.0586 95.4781 41.3525 95.0706 41.3525Z" fill="#8A38F5"/>
<path d="M102.035 53.167C101.482 53.167 101.017 52.9172 100.638 52.4176C100.26 51.9179 99.9688 51.2714 99.7651 50.4779C99.5613 49.7138 99.4012 48.9056 99.2848 48.0533C99.1975 47.2304 99.1393 46.4515 99.1102 45.7168C99.0811 45.0115 99.0665 44.4678 99.0665 44.0857C99.0665 42.0579 99.2121 39.9712 99.5031 37.8258C99.7942 35.6804 100.173 33.5497 100.638 31.4336C101.104 29.2882 101.599 27.2604 102.123 25.3501C101.89 25.2913 101.715 25.1296 101.599 24.8651C101.511 24.5712 101.468 24.3214 101.468 24.1157C101.468 23.5867 101.642 23.3222 101.992 23.3222C102.195 23.3222 102.428 23.3663 102.69 23.4545C102.778 23.2487 102.865 23.0283 102.952 22.7932C103.069 22.5287 103.258 22.3964 103.52 22.3964C103.694 22.3964 103.855 22.4552 104 22.5728C104.146 22.6903 104.218 22.852 104.218 23.0577C104.218 23.1753 104.175 23.3369 104.087 23.5426C104.029 23.719 103.971 23.8659 103.913 23.9835C105.019 24.63 106.038 25.4382 106.969 26.4081C107.93 27.3485 108.483 28.5094 108.628 29.8907C108.744 29.8025 108.977 29.6262 109.327 29.3617C109.705 29.0972 110.069 28.8474 110.418 28.6123C110.797 28.3478 111.029 28.2155 111.117 28.2155C111.262 28.2155 111.335 28.289 111.335 28.4359C111.335 28.5535 111.146 28.8033 110.767 29.1854C110.389 29.538 109.982 29.8907 109.545 30.2434C109.108 30.596 108.817 30.8459 108.672 30.9928C108.672 31.8157 108.468 32.7855 108.06 33.9023C107.682 34.9897 107.158 36.0478 106.489 37.0764C105.819 38.105 105.048 38.9573 104.175 39.6332C103.302 40.3092 102.399 40.6472 101.468 40.6472C100.973 40.6472 100.726 40.4121 100.726 39.9418C100.726 39.354 100.973 38.634 101.468 37.7817C101.992 36.9294 102.618 36.0478 103.345 35.1367C104.102 34.2256 104.844 33.4027 105.572 32.668C106.3 31.9039 106.896 31.3308 107.362 30.9487V30.6401C107.42 29.3764 107.027 28.3478 106.183 27.5543C105.339 26.7607 104.408 26.0995 103.389 25.5705C102.487 28.5682 101.73 31.7128 101.119 35.0044C100.507 38.2666 100.202 41.4701 100.202 44.6147C100.202 44.938 100.216 45.4964 100.245 46.2899C100.274 47.1128 100.347 47.9651 100.464 48.8468C100.609 49.7578 100.813 50.5367 101.075 51.1832C101.366 51.8298 101.759 52.1531 102.254 52.1531C102.632 52.1531 102.967 51.9767 103.258 51.6241C103.549 51.2714 103.811 50.9187 104.044 50.566C104.277 50.2134 104.466 50.037 104.611 50.037C104.728 50.037 104.786 50.1399 104.786 50.3456C104.786 50.6689 104.626 51.051 104.306 51.4918C103.986 51.962 103.607 52.3588 103.171 52.6821C102.734 53.0054 102.356 53.167 102.035 53.167ZM101.817 39.6332C102.428 39.6332 103.025 39.3687 103.607 38.8397C104.189 38.2813 104.713 37.6054 105.179 36.8119C105.674 35.989 106.096 35.1808 106.445 34.3873C106.794 33.5938 107.027 32.9619 107.144 32.4917C106.969 32.668 106.663 33.006 106.227 33.5056C105.819 33.9758 105.354 34.5342 104.83 35.1808C104.306 35.7979 103.796 36.4151 103.302 37.0323C102.836 37.6201 102.443 38.1491 102.123 38.6193C101.803 39.0895 101.642 39.3981 101.642 39.5451C101.642 39.6039 101.701 39.6332 101.817 39.6332Z" fill="#8A38F5"/>
<path d="M111.761 41.4848C111.412 41.4848 111.15 41.235 110.975 40.7353C110.801 40.2063 110.67 39.5892 110.583 38.8838C110.495 38.1491 110.437 37.4731 110.408 36.856C110.408 36.2094 110.408 35.7833 110.408 35.5775C110.408 33.7848 110.481 31.8745 110.626 29.8466C110.801 27.7894 111.063 25.7174 111.412 23.6308C111.79 21.5148 112.285 19.5016 112.897 17.5913C113.508 15.6516 114.265 13.9029 115.167 12.3453C115.371 11.9926 115.676 11.8163 116.084 11.8163C116.258 11.8163 116.418 11.8751 116.564 11.9926C116.709 12.0808 116.782 12.2278 116.782 12.4335C116.782 12.6098 116.724 12.8155 116.608 13.0507C115.764 15.0197 114.963 16.9447 114.206 18.8256C113.45 20.6772 112.838 22.6609 112.373 24.777C111.761 27.5983 111.456 30.4638 111.456 33.3733C111.456 34.784 111.543 36.18 111.718 37.5613C111.863 37.0911 112.154 36.371 112.591 35.4012C113.028 34.4313 113.537 33.3586 114.119 32.1831C114.73 31.0075 115.371 29.876 116.04 28.7886C116.739 27.7012 117.408 26.8195 118.048 26.1436C118.689 25.4382 119.256 25.0856 119.751 25.0856C120.275 25.0856 120.61 25.3501 120.755 25.8791C120.93 26.3787 121.017 26.8342 121.017 27.2457C121.017 28.4212 120.93 29.5968 120.755 30.7724C120.581 31.948 120.493 33.1382 120.493 34.3432C120.493 34.4607 120.508 34.784 120.537 35.313C120.566 35.8126 120.624 36.2976 120.712 36.7678C120.828 37.238 120.974 37.4731 121.148 37.4731C121.41 37.4731 121.672 37.3115 121.934 36.9882C122.196 36.6355 122.429 36.2535 122.633 35.842C122.866 35.4012 123.069 35.0191 123.244 34.6959C123.419 34.3432 123.55 34.1668 123.637 34.1668C123.724 34.1668 123.782 34.2403 123.812 34.3873C123.841 34.5048 123.855 34.593 123.855 34.6518C123.855 35.0338 123.71 35.5628 123.419 36.2388C123.157 36.8853 122.807 37.4878 122.371 38.0462C121.934 38.5752 121.498 38.8397 121.061 38.8397C120.653 38.8397 120.319 38.6634 120.057 38.3107C119.824 37.9581 119.649 37.5319 119.533 37.0323C119.416 36.5327 119.329 36.0478 119.271 35.5775C119.242 35.1073 119.227 34.7399 119.227 34.4754C119.227 33.4174 119.271 32.3594 119.358 31.3014C119.475 30.2434 119.533 29.1854 119.533 28.1273V27.7747C119.533 27.5983 119.518 27.4367 119.489 27.2898C119.46 27.1134 119.387 27.0253 119.271 27.0253C119.096 27.0253 118.849 27.231 118.529 27.6424C118.208 28.0245 117.99 28.289 117.874 28.4359C117.088 29.4352 116.331 30.6254 115.603 32.0067C114.905 33.388 114.294 34.8134 113.77 36.2829C113.246 37.7229 112.867 39.0748 112.635 40.3386C112.605 40.5737 112.518 40.8235 112.373 41.088C112.256 41.3525 112.052 41.4848 111.761 41.4848Z" fill="#8A38F5"/>
<path d="M127.344 42.4987C126.791 42.4987 126.326 42.293 125.947 41.8815C125.598 41.4701 125.321 40.9705 125.118 40.3827C124.914 39.7655 124.768 39.1483 124.681 38.5311C124.623 37.914 124.594 37.3997 124.594 36.9882C124.594 36.5474 124.637 35.842 124.725 34.8722C124.841 33.873 125.016 32.7709 125.249 31.5659C125.481 30.3609 125.772 29.2001 126.122 28.0833C126.471 26.9371 126.879 25.9819 127.344 25.2178C127.839 24.4537 128.407 24.0422 129.047 23.9835C129.134 23.719 129.265 23.4985 129.44 23.3222C129.615 23.1165 129.847 23.0136 130.138 23.0136C130.721 23.0136 131.23 23.2634 131.667 23.763C132.103 24.2627 132.467 24.8798 132.758 25.6146C133.049 26.3493 133.267 27.0693 133.413 27.7747C133.588 28.48 133.675 29.0531 133.675 29.4939C133.675 30.8459 133.544 32.1831 133.282 33.5056L133.631 33.5497C134.475 33.5497 135.13 33.4174 135.596 33.1529C136.062 32.8884 136.426 32.6386 136.687 32.4035C136.949 32.139 137.168 32.0067 137.342 32.0067C137.517 32.0067 137.604 32.1096 137.604 32.3153C137.604 32.668 137.415 32.9913 137.037 33.2852C136.687 33.5497 136.251 33.7995 135.727 34.0346C135.203 34.2403 134.694 34.3873 134.199 34.4754C133.704 34.5636 133.326 34.5783 133.064 34.5195C132.918 35.1367 132.671 35.9008 132.321 36.8119C132.001 37.6936 131.594 38.5752 131.099 39.4569C130.633 40.3092 130.08 41.0292 129.44 41.617C128.8 42.2048 128.101 42.4987 127.344 42.4987ZM132.103 32.6239C132.278 31.5953 132.365 30.552 132.365 29.4939C132.365 29.2588 132.307 28.8621 132.19 28.3037C132.103 27.7159 131.958 27.0987 131.754 26.4522C131.579 25.8056 131.361 25.2472 131.099 24.777C130.837 24.3067 130.561 24.0716 130.269 24.0716C130.124 24.0716 130.008 24.1892 129.92 24.4243C129.862 24.63 129.818 24.8651 129.789 25.1296C129.789 25.3941 129.789 25.5705 129.789 25.6587C129.789 26.8342 129.964 28.0686 130.313 29.3617C130.692 30.6254 131.288 31.7128 132.103 32.6239ZM127.475 41.3525C127.912 41.3525 128.363 41.0586 128.829 40.4708C129.294 39.8537 129.731 39.1189 130.138 38.2666C130.575 37.385 130.939 36.5474 131.23 35.7539C131.521 34.9604 131.71 34.3726 131.798 33.9905C130.692 33.2264 129.862 32.1978 129.309 30.9046C128.785 29.6115 128.523 28.289 128.523 26.9371C128.523 26.3493 128.567 25.7909 128.654 25.2619C128.043 26.3199 127.533 27.569 127.126 29.009C126.718 30.4491 126.413 31.9186 126.209 33.4174C126.034 34.9163 125.947 36.2829 125.947 37.5172C125.947 37.8111 125.976 38.2666 126.034 38.8838C126.122 39.501 126.282 40.0741 126.515 40.6031C126.748 41.1027 127.068 41.3525 127.475 41.3525Z" fill="#8A38F5"/>
<path d="M138.428 53.167C137.875 53.167 137.41 52.9172 137.031 52.4176C136.653 51.9179 136.362 51.2714 136.158 50.4779C135.954 49.7138 135.794 48.9056 135.678 48.0533C135.591 47.2304 135.532 46.4515 135.503 45.7168C135.474 45.0115 135.46 44.4678 135.46 44.0857C135.46 42.0579 135.605 39.9712 135.896 37.8258C136.187 35.6804 136.566 33.5497 137.031 31.4336C137.497 29.2882 137.992 27.2604 138.516 25.3501C138.283 25.2913 138.108 25.1296 137.992 24.8651C137.905 24.5712 137.861 24.3214 137.861 24.1157C137.861 23.5867 138.035 23.3222 138.385 23.3222C138.589 23.3222 138.821 23.3663 139.083 23.4545C139.171 23.2487 139.258 23.0283 139.345 22.7932C139.462 22.5287 139.651 22.3964 139.913 22.3964C140.088 22.3964 140.248 22.4552 140.393 22.5728C140.539 22.6903 140.611 22.852 140.611 23.0577C140.611 23.1753 140.568 23.3369 140.48 23.5426C140.422 23.719 140.364 23.8659 140.306 23.9835C141.412 24.63 142.431 25.4382 143.362 26.4081C144.323 27.3485 144.876 28.5094 145.021 29.8907C145.138 29.8025 145.37 29.6262 145.72 29.3617C146.098 29.0972 146.462 28.8474 146.811 28.6123C147.19 28.3478 147.422 28.2155 147.51 28.2155C147.655 28.2155 147.728 28.289 147.728 28.4359C147.728 28.5535 147.539 28.8033 147.16 29.1854C146.782 29.538 146.375 29.8907 145.938 30.2434C145.501 30.596 145.21 30.8459 145.065 30.9928C145.065 31.8157 144.861 32.7855 144.454 33.9023C144.075 34.9897 143.551 36.0478 142.882 37.0764C142.212 38.105 141.441 38.9573 140.568 39.6332C139.695 40.3092 138.792 40.6472 137.861 40.6472C137.366 40.6472 137.119 40.4121 137.119 39.9418C137.119 39.354 137.366 38.634 137.861 37.7817C138.385 36.9294 139.011 36.0478 139.738 35.1367C140.495 34.2256 141.237 33.4027 141.965 32.668C142.693 31.9039 143.289 31.3308 143.755 30.9487V30.6401C143.813 29.3764 143.42 28.3478 142.576 27.5543C141.732 26.7607 140.801 26.0995 139.782 25.5705C138.88 28.5682 138.123 31.7128 137.512 35.0044C136.9 38.2666 136.595 41.4701 136.595 44.6147C136.595 44.938 136.609 45.4964 136.638 46.2899C136.667 47.1128 136.74 47.9651 136.857 48.8468C137.002 49.7578 137.206 50.5367 137.468 51.1832C137.759 51.8298 138.152 52.1531 138.647 52.1531C139.025 52.1531 139.36 51.9767 139.651 51.6241C139.942 51.2714 140.204 50.9187 140.437 50.566C140.67 50.2134 140.859 50.037 141.004 50.037C141.121 50.037 141.179 50.1399 141.179 50.3456C141.179 50.6689 141.019 51.051 140.699 51.4918C140.379 51.962 140 52.3588 139.564 52.6821C139.127 53.0054 138.749 53.167 138.428 53.167ZM138.21 39.6332C138.821 39.6332 139.418 39.3687 140 38.8397C140.582 38.2813 141.106 37.6054 141.572 36.8119C142.067 35.989 142.489 35.1808 142.838 34.3873C143.187 33.5938 143.42 32.9619 143.537 32.4917C143.362 32.668 143.056 33.006 142.62 33.5056C142.212 33.9758 141.747 34.5342 141.223 35.1808C140.699 35.7979 140.189 36.4151 139.695 37.0323C139.229 37.6201 138.836 38.1491 138.516 38.6193C138.196 39.0895 138.035 39.3981 138.035 39.5451C138.035 39.6039 138.094 39.6332 138.21 39.6332Z" fill="#8A38F5"/>
</svg>
